<svg width="24" height="24" viewBox="0 0 24 24" fill="none"
  xmlns="http://www.w3.org/2000/svg">
  <path fill-rule="evenodd" clip-rule="evenodd" d="M19.4684 11.375H21.6875C21.8602 11.375 22 11.5148 22 11.6875V12.3125C22 12.4852 21.8602 12.625 21.6875 12.625H19.4684C19.1672 16.2672 16.2672 19.1672 12.625 19.4684V21.6875C12.625 21.8602 12.4852 22 12.3125 22H11.6875C11.5148 22 11.375 21.8602 11.375 21.6875V19.4684C7.73281 19.1672 4.83281 16.2672 4.53164 12.625H2.3125C2.13984 12.625 2 12.4852 2 12.3125V11.6875C2 11.5148 2.13984 11.375 2.3125 11.375H4.53164C4.83281 7.73281 7.73281 4.83281 11.375 4.53164V2.3125C11.375 2.13984 11.5148 2 11.6875 2H12.3125C12.4852 2 12.625 2.13984 12.625 2.3125V4.53164C16.2672 4.83281 19.1672 7.73281 19.4684 11.375ZM5.75 12C5.75 15.4461 8.55391 18.25 12 18.25C15.4461 18.25 18.25 15.4461 18.25 12C18.25 8.55391 15.4461 5.75 12 5.75C8.55391 5.75 5.75 8.55391 5.75 12ZM12 8.25C9.92891 8.25 8.25 9.92891 8.25 12C8.25 14.0711 9.92891 15.75 12 15.75C14.0711 15.75 15.75 14.0711 15.75 12C15.75 9.92891 14.0711 8.25 12 8.25ZM9.5 12C9.5 13.3785 10.6215 14.5 12 14.5C13.3785 14.5 14.5 13.3785 14.5 12C14.5 10.6215 13.3785 9.5 12 9.5C10.6215 9.5 9.5 10.6215 9.5 12Z" fill="#333333"/>
</svg>
