<svg width="16" height="16" viewBox="0 0 16 16" fill="none"
  xmlns="http://www.w3.org/2000/svg">
  <path fill-rule="evenodd" clip-rule="evenodd" d="M12.9789 7.58325H14.4583C14.5734 7.58325 14.6667 7.67648 14.6667 7.79159V8.20825C14.6667 8.32336 14.5734 8.41659 14.4583 8.41659H12.9789C12.7781 10.8447 10.8448 12.778 8.41666 12.9788V14.4583C8.41666 14.5734 8.32343 14.6666 8.20833 14.6666H7.79166C7.67656 14.6666 7.58333 14.5734 7.58333 14.4583V12.9788C5.1552 12.778 3.22187 10.8447 3.02109 8.41659H1.54166C1.42656 8.41659 1.33333 8.32336 1.33333 8.20825V7.79159C1.33333 7.67648 1.42656 7.58325 1.54166 7.58325H3.02109C3.22187 5.15513 5.1552 3.22179 7.58333 3.02101V1.54159C7.58333 1.42648 7.67656 1.33325 7.79166 1.33325H8.20833C8.32343 1.33325 8.41666 1.42648 8.41666 1.54159V3.02101C10.8448 3.22179 12.7781 5.15513 12.9789 7.58325ZM3.83333 7.99992C3.83333 10.2973 5.7026 12.1666 8 12.1666C10.2974 12.1666 12.1667 10.2973 12.1667 7.99992C12.1667 5.70252 10.2974 3.83325 8 3.83325C5.7026 3.83325 3.83333 5.70252 3.83333 7.99992ZM7.99999 5.49992C6.61927 5.49992 5.49999 6.61919 5.49999 7.99992C5.49999 9.38065 6.61927 10.4999 7.99999 10.4999C9.38072 10.4999 10.5 9.38065 10.5 7.99992C10.5 6.61919 9.38072 5.49992 7.99999 5.49992ZM6.33333 7.99992C6.33333 8.91893 7.08098 9.66658 7.99999 9.66658C8.91901 9.66658 9.66666 8.91893 9.66666 7.99992C9.66666 7.08091 8.91901 6.33325 7.99999 6.33325C7.08098 6.33325 6.33333 7.08091 6.33333 7.99992Z" fill="#4285F4"/>
</svg>
