<svg width="32" height="32" viewBox="0 0 32 32" fill="none" xmlns="http://www.w3.org/2000/svg">
<path d="M25.9066 11.4614L25.9049 11.449L25.9029 11.4366C25.1007 6.59232 20.9183 3.03168 16.0012 3.00002L16.0012 2.99994L15.9883 3.00002C11.0712 3.03168 6.8888 6.59232 6.08667 11.4366L6.08389 11.4534L6.08168 11.4703C5.82582 13.4264 6.17439 15.4136 7.08043 17.1664C8.27231 19.649 9.70969 22.0066 11.3712 24.2042C12.3898 25.6159 13.495 26.9712 14.583 28.2856C14.9093 28.7016 15.3966 28.9601 15.9241 28.9975L15.9651 29.0004L16.0062 28.9999C16.5724 28.9935 17.1055 28.7313 17.4559 28.2866C18.5474 26.9678 19.6406 25.6149 20.6671 24.2061C22.3301 22.0067 23.7687 19.6469 24.9613 17.162C25.85 15.4021 26.1799 13.4135 25.9066 11.4614Z" fill="#E6040E" stroke="#E6040E" stroke-width="2"/>
<circle cx="16" cy="13" r="4" fill="white"/>
</svg>
