<svg width="16" height="16" viewBox="0 0 16 16" fill="none"
  xmlns="http://www.w3.org/2000/svg">
  <path d="M12.4666 6.46671L8.46659 10.4667C8.33325 10.6 8.19992 10.6667 7.99992 10.6667C7.79992 10.6667 7.66659 10.6 7.53325 10.4667L3.53325 6.46671C3.26659 6.20004 3.26659 5.80004 3.53325 5.53337C3.79992 5.26671 4.19992 5.26671 4.46659 5.53337L7.99992 9.06671L11.5333 5.53337C11.7999 5.26671 12.1999 5.26671 12.4666 5.53337C12.7333 5.80004 12.7333 6.20004 12.4666 6.46671Z" fill="black"/>
  <mask id="mask0" mask-type="alpha" maskUnits="userSpaceOnUse" x="3" y="5" width="10" height="6">
    <path d="M12.4666 6.46671L8.46659 10.4667C8.33325 10.6 8.19992 10.6667 7.99992 10.6667C7.79992 10.6667 7.66659 10.6 7.53325 10.4667L3.53325 6.46671C3.26659 6.20004 3.26659 5.80004 3.53325 5.53337C3.79992 5.26671 4.19992 5.26671 4.46659 5.53337L7.99992 9.06671L11.5333 5.53337C11.7999 5.26671 12.1999 5.26671 12.4666 5.53337C12.7333 5.80004 12.7333 6.20004 12.4666 6.46671Z" fill="white"/>
  </mask>
  <g mask="url(#mask0)">
    <rect width="16" height="16" fill="black"/>
  </g>
</svg>
