<svg width="16" height="16" viewBox="0 0 16 16" fill="none"
  xmlns="http://www.w3.org/2000/svg">
  <mask id="mask0" mask-type="alpha" maskUnits="userSpaceOnUse" x="0" y="0" width="16" height="16">
    <path fill-rule="evenodd" clip-rule="evenodd" d="M14.6728 1.33331C14.9394 1.33331 15.1394 1.46665 15.2728 1.73331C15.4061 1.93331 15.3394 2.19998 15.2061 2.39998L10.0061 8.53331V14C10.0061 14.2666 9.87276 14.4666 9.67276 14.6C9.60609 14.6666 9.47276 14.6666 9.33943 14.6666C9.20609 14.6666 9.13943 14.6666 9.07276 14.6L6.40609 13.2666C6.13943 13.1333 6.00609 12.9333 6.00609 12.6666V8.53331L0.806093 2.39998C0.672759 2.19998 0.606093 1.93331 0.739426 1.73331C0.872759 1.46665 1.07276 1.33331 1.33943 1.33331H14.6728ZM8.67276 8.33331C8.67276 8.13331 8.73943 7.99998 8.80609 7.86665L13.2728 2.66665H2.80609L7.20609 7.93331C7.27276 7.99998 7.33943 8.19998 7.33943 8.33331V12.2666L8.67276 12.9333V8.33331Z" fill="black"/>
  </mask>
  <g mask="url(#mask0)">
    <rect width="16" height="16" fill="#6F6F6F"/>
  </g>
</svg>
