<svg width="32" height="32" viewBox="0 0 32 32" fill="none" xmlns="http://www.w3.org/2000/svg">
<path d="M25.9066 11.4614L25.9049 11.449L25.9029 11.4366C25.1007 6.59232 20.9183 3.03168 16.0012 3.00002L16.0012 2.99994L15.9883 3.00002C11.0712 3.03168 6.8888 6.59232 6.08667 11.4366L6.08389 11.4534L6.08168 11.4703C5.82582 13.4264 6.17439 15.4136 7.08043 17.1664C8.27231 19.649 9.70969 22.0066 11.3712 24.2042C12.3898 25.6159 13.495 26.9712 14.583 28.2856C14.9093 28.7016 15.3966 28.9601 15.9241 28.9975L15.9651 29.0004L16.0062 28.9999C16.5724 28.9935 17.1055 28.7313 17.4559 28.2866C18.5474 26.9678 19.6406 25.6149 20.6671 24.2061C22.3301 22.0067 23.7687 19.6469 24.9613 17.162C25.85 15.4021 26.1799 13.4135 25.9066 11.4614Z" fill="#97BE0E" stroke="#97BE0E" stroke-width="2"/>
<path fill-rule="evenodd" clip-rule="evenodd" d="M20.7724 9.92075H22.3285C22.5315 9.92075 22.6804 10.1115 22.6313 10.3083L22.4753 10.9321C22.4408 11.0708 22.316 11.1683 22.1728 11.1683H21.6511C21.9999 11.4732 22.2248 11.9163 22.2248 12.4159V13.6634C22.2248 14.0827 22.0647 14.4608 21.8089 14.7532V16.1586C21.8089 16.6178 21.4365 16.9903 20.9772 16.9903H20.1455C19.6862 16.9903 19.3138 16.6178 19.3138 16.1586V15.3269H12.6601V16.1586C12.6601 16.6178 12.2877 16.9903 11.8284 16.9903H10.9967C10.5374 16.9903 10.165 16.6178 10.165 16.1586V14.7532C9.90924 14.4606 9.74913 14.0824 9.74913 13.6634V12.4159C9.74913 11.9163 9.97396 11.4732 10.323 11.1683H9.80138C9.65817 11.1683 9.53341 11.0708 9.49884 10.9321L9.3429 10.3083C9.29351 10.1115 9.44244 9.92075 9.64543 9.92075H11.2012L11.6337 8.83953C12.0784 7.72789 13.1394 7.00977 14.3365 7.00977H17.6374C18.8348 7.00977 19.8955 7.72789 20.3399 8.83953L20.7724 9.92075ZM14.3365 8.67318C13.8263 8.67318 13.3676 8.98377 13.1781 9.45733L12.6601 10.7525H19.3138L18.7958 9.45733C18.6063 8.98377 18.1476 8.67318 17.6374 8.67318H14.3365ZM11.8284 13.6582C11.3294 13.6582 10.9967 13.3266 10.9967 12.8291C10.9967 12.3317 11.3294 12 11.8284 12C12.3274 12 13.076 12.7462 13.076 13.2437C13.076 13.6808 12.498 13.6698 12.0193 13.6607C11.9532 13.6595 11.8889 13.6582 11.8284 13.6582ZM19.9546 13.6607C20.0207 13.6595 20.085 13.6582 20.1455 13.6582C20.6445 13.6582 20.9772 13.3266 20.9772 12.8291C20.9772 12.3317 20.6445 12 20.1455 12C19.6465 12 18.8979 12.7462 18.8979 13.2437C18.8979 13.6808 19.4759 13.6698 19.9546 13.6607Z" fill="white"/>
</svg>
