<svg width="32" height="32" viewBox="0 0 32 32" fill="none" xmlns="http://www.w3.org/2000/svg">
<path d="M25.9066 11.4614L25.9049 11.449L25.9029 11.4366C25.1007 6.59232 20.9183 3.03168 16.0012 3.00002L16.0012 2.99994L15.9883 3.00002C11.0712 3.03168 6.8888 6.59232 6.08667 11.4366L6.08389 11.4534L6.08168 11.4703C5.82582 13.4264 6.17439 15.4136 7.08043 17.1664C8.27231 19.649 9.70969 22.0066 11.3712 24.2042C12.3898 25.6159 13.495 26.9712 14.583 28.2856C14.9093 28.7016 15.3966 28.9601 15.9241 28.9975L15.9651 29.0004L16.0062 28.9999C16.5724 28.9935 17.1055 28.7313 17.4559 28.2866C18.5474 26.9678 19.6406 25.6149 20.6671 24.2061C22.3301 22.0067 23.7687 19.6469 24.9613 17.162C25.85 15.4021 26.1799 13.4135 25.9066 11.4614Z" fill="#DE7000" stroke="#DE7000" stroke-width="2"/>
<path fill-rule="evenodd" clip-rule="evenodd" d="M20.7725 9.92075H22.3285C22.5315 9.92075 22.6804 10.1115 22.6313 10.3083L22.4754 10.9321C22.4408 11.0708 22.3161 11.1683 22.1728 11.1683H21.6512C22 11.4732 22.2248 11.9163 22.2248 12.4159V13.6634C22.2248 14.0827 22.0647 14.4608 21.809 14.7532V16.1586C21.809 16.6178 21.4365 16.9903 20.9773 16.9903H20.1456C19.6863 16.9903 19.3138 16.6178 19.3138 16.1586V15.3269H12.6602V16.1586C12.6602 16.6178 12.2877 16.9903 11.8285 16.9903H10.9968C10.5375 16.9903 10.165 16.6178 10.165 16.1586V14.7532C9.9093 14.4606 9.74919 14.0824 9.74919 13.6634V12.4159C9.74919 11.9163 9.97402 11.4732 10.3231 11.1683H9.80144C9.65823 11.1683 9.53347 11.0708 9.4989 10.9321L9.34296 10.3083C9.29357 10.1115 9.4425 9.92075 9.64549 9.92075H11.2013L11.6338 8.83953C12.0785 7.72789 13.1394 7.00977 14.3366 7.00977H17.6374C18.8348 7.00977 19.8955 7.72789 20.34 8.83953L20.7725 9.92075ZM14.3366 8.67318C13.8264 8.67318 13.3676 8.98377 13.1782 9.45733L12.6602 10.7525H19.3138L18.7958 9.45733C18.6064 8.98377 18.1476 8.67318 17.6374 8.67318H14.3366ZM11.8285 13.6582C11.3294 13.6582 10.9968 13.3266 10.9968 12.8291C10.9968 12.3317 11.3294 12 11.8285 12C12.3275 12 13.076 12.7462 13.076 13.2437C13.076 13.6808 12.4981 13.6698 12.0193 13.6607C11.9532 13.6595 11.889 13.6582 11.8285 13.6582ZM19.9547 13.6607C20.0208 13.6595 20.085 13.6582 20.1456 13.6582C20.6446 13.6582 20.9773 13.3266 20.9773 12.8291C20.9773 12.3317 20.6446 12 20.1456 12C19.6465 12 18.898 12.7462 18.898 13.2437C18.898 13.6808 19.4759 13.6698 19.9547 13.6607Z" fill="white"/>
</svg>
